<?xml version="1.0" encoding="utf-8"?>
<!-- Generator: Adobe Illustrator 18.0.0, SVG Export Plug-In . SVG Version: 6.00 Build 0)  -->
<!DOCTYPE svg PUBLIC "-//W3C//DTD SVG 1.1//EN" "http://www.w3.org/Graphics/SVG/1.1/DTD/svg11.dtd">
<svg version="1.1" id="图层_1" xmlns="http://www.w3.org/2000/svg" xmlns:xlink="http://www.w3.org/1999/xlink" x="0px" y="0px"
	 viewBox="0 0 1024 1024" style="enable-background:new 0 0 1024 1024;" xml:space="preserve">
<style type="text/css">
	.st0{fill-rule:evenodd;clip-rule:evenodd;}
</style>
<g>
	<path class="st0" d="M837.885,789.062h-653.77c-13.338,0-26.129-5.298-35.56-14.73c-9.431-9.431-14.73-22.223-14.73-35.56V286.162
		c0-27.775,22.516-50.29,50.29-50.29h653.77c13.338,0,26.13,5.299,35.564,14.73c9.429,9.432,14.726,22.223,14.726,35.561v452.611
		c0,13.338-5.297,26.129-14.726,35.56C864.015,783.764,851.223,789.062,837.885,789.062L837.885,789.062z M670.143,453.149
		l167.742,166.159V311.306c0-0.226-0.125-0.402-0.125-0.628L670.143,453.149L670.143,453.149z M184.115,713.627
		c0,13.887,11.258,25.145,25.145,25.145H812.74c13.887,0,25.145-11.258,25.145-25.145v-45.01h-21.323L634.764,488.554l5.96-5.959
		l-94.168,94.143c-19.639,19.632-51.472,19.632-71.111,0l-88.208-88.184L205.438,668.618h-21.323V713.627L184.115,713.627z
		 M184.115,619.309l167.742-166.159L184.24,310.678c0,0.226-0.126,0.402-0.126,0.628V619.309L184.115,619.309z M230.834,286.162
		l262.389,237.243c4.712,4.72,11.108,7.373,17.777,7.373c6.67,0,13.066-2.653,17.777-7.373l262.389-237.243H230.834L230.834,286.162
		z"/>
</g>
</svg>
