<?xml version="1.0" encoding="utf-8"?>
<!-- Generator: Adobe Illustrator 18.0.0, SVG Export Plug-In . SVG Version: 6.00 Build 0)  -->
<!DOCTYPE svg PUBLIC "-//W3C//DTD SVG 1.1//EN" "http://www.w3.org/Graphics/SVG/1.1/DTD/svg11.dtd">
<svg version="1.1" id="图层_1" xmlns="http://www.w3.org/2000/svg" xmlns:xlink="http://www.w3.org/1999/xlink" x="0px" y="0px"
	 viewBox="0 0 1024 1024" style="enable-background:new 0 0 1024 1024;" xml:space="preserve">
<style type="text/css">
	.st0{clip-path:url(#SVGID_2_);}
</style>
<g>
	<g>
		<defs>
			<rect id="SVGID_1_" x="167.658" y="66.594" width="675.217" height="891.69"/>
		</defs>
		<clipPath id="SVGID_2_">
			<use xlink:href="#SVGID_1_"  style="overflow:visible;"/>
		</clipPath>
		<path class="st0" d="M486.495,193.572v-0.119c-116.368,0-211.037,94.642-211.094,210.991c0,0.041-0.006,0.068-0.006,0.109
			c0,12.305,9.98,22.275,22.269,22.275c12.305,0,22.275-9.97,22.275-22.275c0-91.34,73.915-165.716,165.068-166.517
			c0.131,0,0.256,0.023,0.386,0.023c12.301,0,22.275-9.98,22.275-22.275C507.669,203.852,498.273,194.144,486.495,193.572
			L486.495,193.572z M486.495,193.572"/>
		<path class="st0" d="M842.981,404.591c0-186.146-151.237-337.616-337.293-338.025V66.56c-0.123,0-0.244,0-0.367,0.006
			c-0.125-0.006-0.244-0.006-0.369-0.006v0.006C318.901,66.97,167.658,218.445,167.658,404.591
			c0,120.565,67.114,232.188,179.536,298.61c2.401,1.418,7.973,5.242,9.958,6.78c5.515,5.611,9.623,12.073,12.697,19.257
			l50.961-6.536c-5.367-17.736-14.263-34.343-28.963-48.907c-4.851-4.812-17.527-12.777-19.161-13.742
			c-97.002-57.309-154.919-152.808-154.919-255.462c0-158.636,128.962-287.716,287.552-287.916
			c158.589,0.199,287.545,129.28,287.545,287.916c0,102.654-57.911,198.152-154.913,255.462c-1.634,0.97-14.331,8.947-19.155,13.742
			c-8.174,8.09-14.552,16.822-19.528,26.013l86.977-11.155C784.865,621.159,842.981,516.754,842.981,404.591L842.981,404.591z
			 M842.981,404.591"/>
	</g>
	<path d="M505.32,906.766c-16.006-0.074-30.87-5.044-43.183-13.474l-61.78,7.721c22.808,33.498,61.156,55.607,104.594,55.857v0.023
		c0.125,0,0.25-0.017,0.369-0.017c0.123,0,0.244,0.017,0.367,0.017v-0.023c54.621-0.312,101.207-35.177,118.949-83.885
		l-61.911,7.734C548.638,896.593,528.134,906.658,505.32,906.766L505.32,906.766z M505.32,906.766"/>
	<path d="M370.746,800.328l0.006,0.028l280.029-35.818v-0.028c1.361-0.131,2.735-0.375,4.096-0.767
		c11.807-3.421,18.61-15.766,15.2-27.585c-3.166-10.927-13.98-17.554-24.936-15.772l-0.006-0.035l-280.039,35.819l0.006,0.028
		c-1.124,0.148-2.247,0.346-3.371,0.675c-7.114,2.06-12.414,7.364-14.751,13.832c-1.554,4.267-1.804,9.05-0.449,13.747
		C349.629,795.147,360.04,801.707,370.746,800.328L370.746,800.328z M370.746,800.328"/>
	<path d="M679.143,812.612c-3.171-10.933-13.98-17.56-24.941-15.778l-0.004-0.035l-280.029,35.818v0.029
		c-1.124,0.147-2.253,0.351-3.371,0.67c-7.12,2.065-12.414,7.37-14.751,13.843c-1.548,4.267-1.81,9.05-0.447,13.747
		c3.097,10.694,13.508,17.254,24.214,15.87l0.006,0.028l280.029-35.818l-0.006-0.023c1.368-0.129,2.735-0.373,4.097-0.771
		C675.755,836.776,682.559,824.43,679.143,812.612L679.143,812.612z M679.143,812.612"/>
</g>
</svg>
